<svg width="81" height="53" viewBox="0 0 81 53" fill="none" xmlns="http://www.w3.org/2000/svg">
<rect x="0.495272" y="29.4452" width="76.0806" height="24.6806" rx="12.3403" transform="rotate(-22 0.495272 29.4452)" fill="#111C45"/>
<rect x="0.495272" y="29.4452" width="76.0806" height="24.6806" rx="12.3403" transform="rotate(-22 0.495272 29.4452)" fill="url(#paint0_linear_78_4753)" fill-opacity="0.38"/>
<rect x="0.495272" y="29.4452" width="76.0806" height="24.6806" rx="12.3403" transform="rotate(-22 0.495272 29.4452)" stroke="url(#paint1_linear_78_4753)" stroke-width="0.519355"/>
<g clip-path="url(#clip0_78_4753)">
<path fill-rule="evenodd" clip-rule="evenodd" d="M19.2442 39.305C16.0264 39.1491 13.0168 33.592 18.3803 31.1606C23.3031 28.929 25.8314 35.1876 23.9538 35.9462C23.5173 36.1225 23.1718 36.2045 22.8984 36.2249C22.6966 36.2399 22.4522 36.2127 22.2004 36.1847C21.6503 36.1235 21.0649 36.0584 20.8121 36.4212C20.565 36.7757 20.5385 37.1876 21.2021 37.5433C23.1851 38.6063 20.4143 39.3985 19.2442 39.305ZM21.6067 33.7398C21.9523 33.6001 22.1193 33.2067 21.9797 32.8611C21.84 32.5154 21.4466 32.3484 21.1009 32.4881C20.7553 32.6277 20.5883 33.0211 20.728 33.3668C20.8676 33.7124 21.261 33.8794 21.6067 33.7398ZM18.8062 33.4152C18.9458 33.7609 18.7788 34.1543 18.4332 34.2939C18.0875 34.4336 17.6941 34.2666 17.5545 33.921C17.4148 33.5753 17.5818 33.1819 17.9275 33.0422C18.2731 32.9026 18.6665 33.0696 18.8062 33.4152ZM18.6944 37.3431C19.0401 37.2035 19.2071 36.81 19.0674 36.4644C18.9278 36.1187 18.5344 35.9518 18.1887 36.0914C17.8431 36.2311 17.6761 36.6245 17.8157 36.9701C17.9554 37.3158 18.3488 37.4828 18.6944 37.3431Z" fill="white"/>
</g>
<path d="M28.2005 35.3359L25.6831 29.1052L28.2822 28.0551C28.6798 27.8945 29.039 27.8183 29.3599 27.8267C29.6808 27.8351 29.9575 27.9304 30.1899 28.1126C30.4258 28.2865 30.6121 28.5426 30.7487 28.8808C30.8854 29.2191 30.9067 29.5452 30.8127 29.8593C30.7247 30.171 30.5325 30.4385 30.2361 30.6617L30.1642 30.4837C30.4671 30.4304 30.7535 30.4389 31.0236 30.5093C31.2912 30.5737 31.5269 30.6959 31.7308 30.8758C31.9406 31.0534 32.1042 31.2875 32.2217 31.5783C32.3415 31.875 32.4008 32.1582 32.3993 32.428C32.4014 32.6895 32.3416 32.9345 32.22 33.1631C32.1043 33.3893 31.9357 33.5955 31.7141 33.7817C31.4901 33.9619 31.2149 34.1179 30.8886 34.2498L28.2005 35.3359ZM28.7878 34.0218L30.4612 33.3457C30.7044 33.2474 30.8948 33.1291 31.0322 32.9907C31.1755 32.85 31.2641 32.6934 31.2979 32.521C31.3353 32.3402 31.3145 32.1519 31.2354 31.9561C31.161 31.7721 31.0471 31.6352 30.8935 31.5454C30.7458 31.4533 30.5697 31.4105 30.3653 31.4171C30.1585 31.4179 29.9335 31.4674 29.6902 31.5657L28.0613 32.2238L28.7878 34.0218ZM27.6873 31.2981L29.2717 30.6579C29.4497 30.586 29.5926 30.4869 29.7003 30.3605C29.8139 30.2318 29.8842 30.0895 29.911 29.9337C29.9437 29.7756 29.9277 29.6164 29.8629 29.4561C29.7551 29.1891 29.5833 29.0204 29.3478 28.9499C29.1122 28.8794 28.8283 28.9113 28.496 29.0455L27.0184 29.6425L27.6873 31.2981ZM34.0276 32.9815L32.1396 28.3085L33.0653 27.9345L33.6587 29.4032L33.4258 29.0831C33.4 28.8312 33.4271 28.5822 33.507 28.3359C33.5929 28.0872 33.7152 27.8687 33.8738 27.6804C34.0383 27.4896 34.2303 27.3499 34.4499 27.2612C34.5508 27.2205 34.6493 27.191 34.7455 27.1728C34.8477 27.1523 34.9302 27.1431 34.9932 27.1452L35.1557 28.2392C35.0725 28.2383 34.9828 28.247 34.8866 28.2651C34.7939 28.275 34.706 28.2967 34.623 28.3302C34.4627 28.395 34.3216 28.4899 34.1997 28.6151C34.0812 28.732 33.9884 28.8696 33.9212 29.0279C33.8576 29.1779 33.8231 29.3402 33.8177 29.5149C33.81 29.6837 33.8409 29.8542 33.9104 30.0262L34.9533 32.6075L34.0276 32.9815ZM39.2516 30.9745C38.8659 31.1303 38.4697 31.1661 38.0629 31.082C37.6621 30.9954 37.2924 30.8065 36.9539 30.5154C36.6154 30.2242 36.3526 29.8471 36.1656 29.3843C35.9762 28.9155 35.9033 28.4618 35.947 28.0231C35.9941 27.5761 36.1389 27.1828 36.3814 26.8432C36.6298 26.5013 36.9587 26.2476 37.3682 26.0822C37.6115 25.9839 37.8484 25.9296 38.0789 25.9193C38.3094 25.9089 38.5252 25.9391 38.7263 26.0097C38.9309 26.072 39.1143 26.167 39.2764 26.2948C39.4444 26.4202 39.5786 26.5731 39.6791 26.7534L39.4456 26.7649L38.9565 25.5543L39.8822 25.1803L41.7702 29.8533L40.8445 30.2273L40.395 29.1147L40.5834 28.9661C40.6126 29.1407 40.6019 29.3279 40.5515 29.5278C40.5046 29.7193 40.4191 29.9091 40.295 30.0973C40.1768 30.2831 40.0282 30.4536 39.8493 30.6087C39.6763 30.7614 39.4771 30.8833 39.2516 30.9745ZM39.1503 30.0318C39.4292 29.9191 39.6479 29.7513 39.8063 29.5286C39.9648 29.3058 40.0555 29.0517 40.0782 28.7664C40.1045 28.4728 40.0554 28.1717 39.9307 27.8631C39.8084 27.5605 39.637 27.3156 39.4165 27.1286C39.2019 26.9392 38.9603 26.8194 38.6915 26.7693C38.4227 26.7191 38.1489 26.7503 37.87 26.863C37.5971 26.9733 37.3813 27.1398 37.2229 27.3626C37.0703 27.583 36.9797 27.8371 36.951 28.1248C36.9282 28.4101 36.9779 28.7041 37.1002 29.0067C37.2249 29.3153 37.3957 29.5672 37.6127 29.7626C37.8332 29.9496 38.0749 30.0694 38.3377 30.1219C38.6064 30.1721 38.8773 30.142 39.1503 30.0318ZM43.0503 29.3361L41.1623 24.6631L42.0791 24.2927L42.4674 25.254L42.3504 25.4256C42.3258 25.1939 42.3648 24.9573 42.4674 24.7157C42.5675 24.4681 42.7147 24.243 42.9089 24.0403C43.1007 23.8316 43.3212 23.677 43.5705 23.5763C43.9265 23.4324 44.252 23.3838 44.5469 23.4303C44.8394 23.4709 45.1025 23.6096 45.3363 23.8465C45.57 24.0833 45.7744 24.4184 45.9494 24.8516L47.1002 27.6999L46.1834 28.0703L45.0578 25.2843C44.9499 25.0172 44.8256 24.8121 44.6849 24.6688C44.5417 24.5195 44.3804 24.4363 44.2009 24.4191C44.019 24.3959 43.8206 24.4347 43.6059 24.5352C43.4279 24.6072 43.2767 24.7028 43.1523 24.822C43.0255 24.9354 42.9261 25.0653 42.8541 25.2117C42.7881 25.3557 42.75 25.5092 42.7399 25.672C42.7333 25.8265 42.7611 25.9809 42.8235 26.1352L43.9671 28.9657L43.5131 29.1491C43.436 29.1803 43.3588 29.2115 43.2817 29.2426C43.2046 29.2738 43.1274 29.305 43.0503 29.3361ZM50.3292 26.4988C49.9019 26.6714 49.4772 26.7222 49.0551 26.6512C48.6365 26.5718 48.2561 26.3907 47.9141 26.1079C47.5696 25.8191 47.3027 25.4403 47.1133 24.9715C46.9239 24.5027 46.851 24.049 46.8946 23.6103C46.9418 23.1633 47.0896 22.7688 47.338 22.4268C47.584 22.0789 47.9176 21.8199 48.3389 21.6497C48.5704 21.5562 48.8085 21.5048 49.0533 21.4957C49.3016 21.4782 49.5382 21.4999 49.763 21.561C49.9854 21.616 50.1753 21.7015 50.3326 21.8175C50.4934 21.9251 50.605 22.056 50.6673 22.2103L50.4075 22.336L49.1452 19.2117L50.062 18.8413L52.7232 25.428L51.8064 25.7984L51.3569 24.6858L51.5349 24.6139C51.5924 24.7563 51.6025 24.9179 51.5651 25.0987C51.5253 25.2735 51.4492 25.4527 51.337 25.6361C51.2306 25.8171 51.088 25.9851 50.9091 26.1403C50.7361 26.293 50.5428 26.4125 50.3292 26.4988ZM50.1337 25.6563C50.4126 25.5436 50.6301 25.3729 50.7862 25.1442C50.9423 24.9154 51.0305 24.6555 51.0509 24.3642C51.0748 24.0646 51.0233 23.7576 50.8962 23.4431C50.7691 23.1286 50.5941 22.8749 50.3712 22.6819C50.1518 22.4807 49.9066 22.352 49.6354 22.2959C49.3643 22.2398 49.0892 22.268 48.8103 22.3807C48.5314 22.4934 48.3139 22.6641 48.1579 22.8928C48.0018 23.1216 47.9118 23.3857 47.8879 23.6853C47.8675 23.9765 47.9208 24.2794 48.0479 24.5939C48.1749 24.9084 48.3482 25.1663 48.5675 25.3676C48.7904 25.5605 49.0375 25.685 49.3086 25.7411C49.5798 25.7973 49.8548 25.769 50.1337 25.6563ZM54.1366 24.857L52.2485 20.184L53.1653 19.8136L55.0534 24.4866L54.1366 24.857ZM52.2764 18.9717C52.0806 19.0508 51.9089 19.0615 51.7613 19.0038C51.6138 18.946 51.5028 18.8252 51.4285 18.6412C51.359 18.4692 51.3561 18.3081 51.4197 18.1582C51.4893 18.0058 51.619 17.8913 51.8089 17.8145C52.0047 17.7354 52.1764 17.7247 52.324 17.7824C52.4716 17.8402 52.5825 17.961 52.6568 18.145C52.7264 18.317 52.7263 18.4793 52.6568 18.6316C52.5931 18.7816 52.4663 18.8949 52.2764 18.9717ZM56.4626 23.9172L54.5746 19.2442L55.4914 18.8738L55.8797 19.8351L55.7627 20.0067C55.7381 19.775 55.7771 19.5384 55.8797 19.2967C55.9798 19.0492 56.127 18.8241 56.3212 18.6214C56.513 18.4127 56.7335 18.258 56.9828 18.1573C57.3388 18.0135 57.6643 17.9648 57.9592 18.0113C58.2517 18.0519 58.5148 18.1907 58.7486 18.4275C58.9823 18.6644 59.1867 18.9995 59.3617 19.4326L60.5125 22.2809L59.5957 22.6514L58.4701 19.8654C58.3622 19.5983 58.2379 19.3932 58.0972 19.2498C57.954 19.1006 57.7927 19.0174 57.6132 19.0002C57.4313 18.977 57.2329 19.0157 57.0182 19.1163C56.8402 19.1882 56.689 19.2838 56.5646 19.4031C56.4378 19.5165 56.3384 19.6463 56.2664 19.7928C56.2004 19.9368 56.1623 20.0902 56.1522 20.2531C56.1456 20.4076 56.1734 20.562 56.2358 20.7163L57.3794 23.5468L56.9254 23.7302C56.8483 23.7614 56.7711 23.7926 56.694 23.8237C56.6169 23.8549 56.5397 23.8861 56.4626 23.9172ZM64.6751 22.9806C64.3428 23.1148 63.9889 23.1957 63.6134 23.2231C63.2463 23.2541 62.9283 23.2273 62.6594 23.1426L62.71 22.2939C62.8646 22.335 63.0352 22.3558 63.2218 22.3563C63.4108 22.3628 63.6015 22.3479 63.7939 22.3115C63.9887 22.2812 64.1721 22.2312 64.3442 22.1617C64.6706 22.0298 64.922 21.8661 65.0984 21.6706C65.2748 21.4751 65.3774 21.2507 65.4062 20.9975C65.4351 20.7442 65.3871 20.4633 65.2625 20.1548L64.8993 19.2558L65.0223 19.2785C65.067 19.4744 65.041 19.692 64.9444 19.9312C64.8513 20.1621 64.7047 20.3801 64.5045 20.5852C64.3044 20.7903 64.0768 20.9444 63.8216 21.0475C63.3765 21.2273 62.937 21.2841 62.503 21.2179C62.0725 21.1433 61.6833 20.9658 61.3353 20.6853C60.9849 20.399 60.715 20.0214 60.5256 19.5526C60.3362 19.0838 60.2663 18.6289 60.3158 18.1878C60.3689 17.7384 60.5256 17.3403 60.7859 16.9935C61.0497 16.6385 61.3982 16.3734 61.8314 16.1984C62.0094 16.1265 62.191 16.0807 62.3764 16.061C62.5593 16.0354 62.7388 16.0354 62.9147 16.0609C63.0883 16.0805 63.2507 16.115 63.4018 16.1644C63.5529 16.2138 63.6856 16.2775 63.8 16.3556C63.9143 16.4336 63.9996 16.5165 64.0558 16.6043L63.8887 16.7546L63.4464 15.6598L64.3632 15.2894L66.1361 19.6775C66.2872 20.0514 66.3638 20.4035 66.3662 20.7339C66.3768 21.0678 66.3179 21.3746 66.1893 21.6543C66.0631 21.94 65.8721 22.1932 65.6161 22.414C65.3626 22.6407 65.0489 22.8295 64.6751 22.9806ZM63.5779 20.1624C63.8686 20.0449 64.0992 19.8724 64.2695 19.6448C64.4399 19.4172 64.5394 19.1596 64.5681 18.8718C64.5968 18.5841 64.5489 18.286 64.4242 17.9774C64.2995 17.6689 64.124 17.4223 63.8975 17.2377C63.6746 17.0447 63.4228 16.9256 63.1422 16.8802C62.8675 16.8324 62.5848 16.8673 62.294 16.9847C62.0092 17.0998 61.7828 17.2741 61.6148 17.5076C61.4504 17.7328 61.3521 17.9934 61.3198 18.2895C61.2911 18.5772 61.3379 18.8723 61.4602 19.175C61.5824 19.4776 61.755 19.7254 61.9779 19.9183C62.2044 20.103 62.455 20.2192 62.7297 20.2669C63.0103 20.3123 63.293 20.2775 63.5779 20.1624Z" fill="white"/>
<defs>
<linearGradient id="paint0_linear_78_4753" x1="31.7869" y1="23.2988" x2="43.2207" y2="56.0756" gradientUnits="userSpaceOnUse">
<stop stop-color="white"/>
<stop offset="1" stop-color="white" stop-opacity="0"/>
</linearGradient>
<linearGradient id="paint1_linear_78_4753" x1="27.9168" y1="18.2614" x2="33.8613" y2="38.5975" gradientUnits="userSpaceOnUse">
<stop stop-color="white"/>
<stop offset="1" stop-color="white" stop-opacity="0"/>
</linearGradient>
<clipPath id="clip0_78_4753">
<rect width="10.8" height="10.8" fill="white" transform="translate(12.8681 31.9316) rotate(-22)"/>
</clipPath>
</defs>
</svg>
