<svg width="686" height="429" viewBox="0 0 686 429" fill="none" opacity="0.1" xmlns="http://www.w3.org/2000/svg">
<g style="mix-blend-mode:overlay">
<path fill-rule="evenodd" clip-rule="evenodd" d="M89.1708 60.636C91.38 60.636 93.1708 58.8452 93.1708 56.636V1.62249C93.1708 1.1498 93.554 0.766602 94.0267 0.766602C94.4994 0.766602 94.8826 1.1498 94.8826 1.62249V56.636C94.8826 58.8452 96.6735 60.636 98.8826 60.636H157.642C159.851 60.636 161.642 58.8452 161.642 56.636V1.62249C161.642 1.1498 162.025 0.766602 162.498 0.766602C162.971 0.766602 163.354 1.1498 163.354 1.62249V56.636C163.354 58.8452 165.145 60.636 167.354 60.636H226.113C228.322 60.636 230.113 58.8452 230.113 56.636V1.62249C230.113 1.1498 230.496 0.766602 230.969 0.766602C231.442 0.766602 231.825 1.1498 231.825 1.62249V56.636C231.825 58.8452 233.616 60.636 235.825 60.636H294.584C296.793 60.636 298.584 58.8452 298.584 56.636V1.62249C298.584 1.1498 298.967 0.766602 299.44 0.766602C299.913 0.766602 300.296 1.1498 300.296 1.62249V56.636C300.296 58.8452 302.087 60.636 304.296 60.636H363.055C365.264 60.636 367.055 58.8452 367.055 56.636V1.62249C367.055 1.1498 367.438 0.766602 367.911 0.766602C368.384 0.766602 368.767 1.1498 368.767 1.62249V56.636C368.767 58.8452 370.558 60.636 372.767 60.636H431.526C433.735 60.636 435.526 58.8452 435.526 56.636V1.62249C435.526 1.1498 435.909 0.766602 436.382 0.766602C436.855 0.766602 437.238 1.1498 437.238 1.62249V56.636C437.238 58.8452 439.029 60.636 441.238 60.636H499.997C502.207 60.636 503.997 58.8452 503.997 56.636V1.62249C503.997 1.1498 504.381 0.766602 504.853 0.766602C505.326 0.766602 505.709 1.1498 505.709 1.62249V56.636C505.709 58.8452 507.5 60.636 509.709 60.636H568.468C570.678 60.636 572.468 58.8452 572.468 56.636V1.62249C572.468 1.1498 572.852 0.766602 573.324 0.766602C573.797 0.766602 574.18 1.1498 574.18 1.62249V56.636C574.18 58.8452 575.971 60.636 578.18 60.636H684.59C685.063 60.636 685.446 61.019 685.446 61.4913C685.446 61.9637 685.063 62.3466 684.59 62.3466H578.18C575.971 62.3466 574.18 64.1374 574.18 66.3466V125.058C574.18 127.267 575.971 129.058 578.18 129.058H684.59C685.063 129.058 685.446 129.441 685.446 129.914C685.446 130.386 685.063 130.769 684.59 130.769H578.18C575.971 130.769 574.18 132.56 574.18 134.769V208.875C574.18 211.085 575.971 212.875 578.18 212.875H684.59C685.063 212.875 685.446 213.258 685.446 213.731C685.446 214.203 685.063 214.586 684.59 214.586H578.18C575.971 214.586 574.18 216.377 574.18 218.586V292.693C574.18 294.902 575.971 296.693 578.18 296.693H684.59C685.063 296.693 685.446 297.076 685.446 297.548C685.446 298.02 685.063 298.403 684.59 298.403H578.18C575.971 298.403 574.18 300.194 574.18 302.403V376.51C574.18 378.719 575.971 380.51 578.18 380.51H684.59C685.063 380.51 685.446 380.893 685.446 381.365C685.446 381.837 685.063 382.22 684.59 382.22H578.18C575.971 382.22 574.18 384.011 574.18 386.22V427.549C574.18 428.022 573.797 428.405 573.324 428.405C572.852 428.405 572.468 428.022 572.468 427.549V386.22C572.468 384.011 570.678 382.22 568.468 382.22H509.709C507.5 382.22 505.709 384.011 505.709 386.22V427.549C505.709 428.022 505.326 428.405 504.853 428.405C504.381 428.405 503.997 428.022 503.997 427.549V386.22C503.997 384.011 502.207 382.22 499.997 382.22H441.238C439.029 382.22 437.238 384.011 437.238 386.22V427.549C437.238 428.022 436.855 428.405 436.382 428.405C435.909 428.405 435.526 428.022 435.526 427.549V386.22C435.526 384.011 433.735 382.22 431.526 382.22H372.767C370.558 382.22 368.767 384.011 368.767 386.22V427.549C368.767 428.022 368.384 428.405 367.911 428.405C367.438 428.405 367.055 428.022 367.055 427.549V386.22C367.055 384.011 365.264 382.22 363.055 382.22H304.296C302.087 382.22 300.296 384.011 300.296 386.22V427.549C300.296 428.022 299.913 428.405 299.44 428.405C298.967 428.405 298.584 428.022 298.584 427.549V386.22C298.584 384.011 296.793 382.22 294.584 382.22H235.825C233.616 382.22 231.825 384.011 231.825 386.22V427.549C231.825 428.022 231.442 428.405 230.969 428.405C230.496 428.405 230.113 428.022 230.113 427.549V386.22C230.113 384.011 228.322 382.22 226.113 382.22H167.354C165.145 382.22 163.354 384.011 163.354 386.22V427.549C163.354 428.022 162.97 428.405 162.498 428.405C162.025 428.405 161.642 428.022 161.642 427.549V386.22C161.642 384.011 159.851 382.22 157.642 382.22H98.8826C96.6735 382.22 94.8826 384.011 94.8826 386.22V427.549C94.8826 428.022 94.4994 428.405 94.0267 428.405C93.554 428.405 93.1708 428.022 93.1708 427.549V386.22C93.1708 384.011 91.38 382.22 89.1708 382.22H1.59014C1.11779 382.22 0.734863 381.837 0.734863 381.365C0.734863 380.893 1.11778 380.51 1.59014 380.51H89.1708C91.38 380.51 93.1708 378.719 93.1708 376.51L93.1708 302.403C93.1708 300.194 91.38 298.403 89.1708 298.403H1.59014C1.11778 298.403 0.734863 298.02 0.734863 297.548C0.734863 297.076 1.11779 296.693 1.59014 296.693H89.1708C91.38 296.693 93.1708 294.902 93.1708 292.693V218.586C93.1708 216.377 91.38 214.586 89.1708 214.586H1.59014C1.11778 214.586 0.734863 214.203 0.734863 213.731C0.734863 213.258 1.11779 212.875 1.59014 212.875H89.1708C91.38 212.875 93.1708 211.085 93.1708 208.875V134.769C93.1708 132.56 91.38 130.769 89.1708 130.769H1.59014C1.11778 130.769 0.734863 130.386 0.734863 129.914C0.734863 129.441 1.11779 129.058 1.59014 129.058H89.1708C91.38 129.058 93.1708 127.267 93.1708 125.058V66.3466C93.1708 64.1375 91.38 62.3466 89.1708 62.3466H1.59014C1.11778 62.3466 0.734863 61.9637 0.734863 61.4913C0.734863 61.019 1.11779 60.636 1.59014 60.636H89.1708ZM94.8826 376.51C94.8826 378.719 96.6735 380.51 98.8826 380.51H157.642C159.851 380.51 161.642 378.719 161.642 376.51L161.642 302.403C161.642 300.194 159.851 298.403 157.642 298.403H98.8826C96.6735 298.403 94.8826 300.194 94.8826 302.403L94.8826 376.51ZM163.354 376.51C163.354 378.719 165.145 380.51 167.354 380.51H226.113C228.322 380.51 230.113 378.719 230.113 376.51L230.113 302.403C230.113 300.194 228.322 298.403 226.113 298.403H167.354C165.145 298.403 163.354 300.194 163.354 302.403L163.354 376.51ZM231.825 376.51C231.825 378.719 233.616 380.51 235.825 380.51H294.584C296.793 380.51 298.584 378.719 298.584 376.51L298.584 302.403C298.584 300.194 296.793 298.403 294.584 298.403H235.825C233.616 298.403 231.825 300.194 231.825 302.403L231.825 376.51ZM300.296 376.51C300.296 378.719 302.087 380.51 304.296 380.51H363.055C365.264 380.51 367.055 378.719 367.055 376.51V302.403C367.055 300.194 365.264 298.403 363.055 298.403H304.296C302.087 298.403 300.296 300.194 300.296 302.403L300.296 376.51ZM368.767 376.51C368.767 378.719 370.558 380.51 372.767 380.51H431.526C433.735 380.51 435.526 378.719 435.526 376.51L435.526 302.403C435.526 300.194 433.735 298.403 431.526 298.403H372.767C370.558 298.403 368.767 300.194 368.767 302.403L368.767 376.51ZM437.238 376.51C437.238 378.719 439.029 380.51 441.238 380.51H499.997C502.206 380.51 503.997 378.719 503.997 376.51V302.403C503.997 300.194 502.207 298.403 499.997 298.403H441.238C439.029 298.403 437.238 300.194 437.238 302.403V376.51ZM505.709 376.51C505.709 378.719 507.5 380.51 509.709 380.51H568.468C570.678 380.51 572.468 378.719 572.468 376.51V302.403C572.468 300.194 570.678 298.403 568.468 298.403H509.709C507.5 298.403 505.709 300.194 505.709 302.403V376.51ZM568.468 214.586C570.678 214.586 572.468 216.377 572.468 218.586V292.693C572.468 294.902 570.678 296.693 568.468 296.693H509.709C507.5 296.693 505.709 294.902 505.709 292.693V218.586C505.709 216.377 507.5 214.586 509.709 214.586H568.468ZM499.997 214.586C502.207 214.586 503.997 216.377 503.997 218.586V292.693C503.997 294.902 502.207 296.693 499.997 296.693H441.238C439.029 296.693 437.238 294.902 437.238 292.693V218.586C437.238 216.377 439.029 214.586 441.238 214.586H499.997ZM431.526 214.586C433.735 214.586 435.526 216.377 435.526 218.586V292.693C435.526 294.902 433.735 296.693 431.526 296.693H372.767C370.558 296.693 368.767 294.902 368.767 292.693V218.586C368.767 216.377 370.558 214.586 372.767 214.586H431.526ZM363.055 214.586C365.264 214.586 367.055 216.377 367.055 218.586V292.693C367.055 294.902 365.264 296.693 363.055 296.693H304.296C302.087 296.693 300.296 294.902 300.296 292.693V218.586C300.296 216.377 302.087 214.586 304.296 214.586H363.055ZM294.584 214.586C296.793 214.586 298.584 216.377 298.584 218.586V292.693C298.584 294.902 296.793 296.693 294.584 296.693H235.825C233.616 296.693 231.825 294.902 231.825 292.693V218.586C231.825 216.377 233.616 214.586 235.825 214.586H294.584ZM226.113 214.586C228.322 214.586 230.113 216.377 230.113 218.586V292.693C230.113 294.902 228.322 296.693 226.113 296.693H167.354C165.145 296.693 163.354 294.902 163.354 292.693V218.586C163.354 216.377 165.145 214.586 167.354 214.586H226.113ZM157.642 214.586C159.851 214.586 161.642 216.377 161.642 218.586V292.693C161.642 294.902 159.851 296.693 157.642 296.693H98.8826C96.6735 296.693 94.8826 294.902 94.8826 292.693V218.586C94.8826 216.377 96.6735 214.586 98.8826 214.586H157.642ZM94.8826 208.875C94.8826 211.085 96.6735 212.875 98.8826 212.875H157.642C159.851 212.875 161.642 211.085 161.642 208.875V134.769C161.642 132.56 159.851 130.769 157.642 130.769H98.8826C96.6735 130.769 94.8826 132.56 94.8826 134.769L94.8826 208.875ZM163.354 208.875C163.354 211.085 165.145 212.875 167.354 212.875H226.113C228.322 212.875 230.113 211.085 230.113 208.875V134.769C230.113 132.56 228.322 130.769 226.113 130.769H167.354C165.145 130.769 163.354 132.56 163.354 134.769V208.875ZM231.825 208.875C231.825 211.085 233.616 212.875 235.825 212.875H294.584C296.793 212.875 298.584 211.085 298.584 208.875V134.769C298.584 132.56 296.793 130.769 294.584 130.769H235.825C233.616 130.769 231.825 132.56 231.825 134.769V208.875ZM300.296 208.875C300.296 211.085 302.087 212.875 304.296 212.875H363.055C365.264 212.875 367.055 211.085 367.055 208.875V134.769C367.055 132.56 365.264 130.769 363.055 130.769H304.296C302.087 130.769 300.296 132.56 300.296 134.769V208.875ZM368.767 208.875C368.767 211.085 370.558 212.875 372.767 212.875H431.526C433.735 212.875 435.526 211.085 435.526 208.875V134.769C435.526 132.56 433.735 130.769 431.526 130.769H372.767C370.558 130.769 368.767 132.56 368.767 134.769V208.875ZM437.238 208.875C437.238 211.085 439.029 212.875 441.238 212.875H499.997C502.207 212.875 503.997 211.085 503.997 208.875V134.769C503.997 132.56 502.207 130.769 499.997 130.769H441.238C439.029 130.769 437.238 132.56 437.238 134.769V208.875ZM505.709 208.875C505.709 211.085 507.5 212.875 509.709 212.875H568.468C570.678 212.875 572.468 211.085 572.468 208.875V134.769C572.468 132.56 570.678 130.769 568.468 130.769H509.709C507.5 130.769 505.709 132.56 505.709 134.769V208.875ZM568.468 62.3466C570.678 62.3466 572.468 64.1374 572.468 66.3466V125.058C572.468 127.267 570.678 129.058 568.468 129.058H509.709C507.5 129.058 505.709 127.267 505.709 125.058V66.3466C505.709 64.1375 507.5 62.3466 509.709 62.3466H568.468ZM499.997 62.3466C502.207 62.3466 503.997 64.1374 503.997 66.3466V125.058C503.997 127.267 502.207 129.058 499.997 129.058H441.238C439.029 129.058 437.238 127.267 437.238 125.058V66.3466C437.238 64.1375 439.029 62.3466 441.238 62.3466H499.997ZM431.526 62.3466C433.735 62.3466 435.526 64.1374 435.526 66.3466V125.058C435.526 127.267 433.735 129.058 431.526 129.058H372.767C370.558 129.058 368.767 127.267 368.767 125.058V66.3466C368.767 64.1375 370.558 62.3466 372.767 62.3466H431.526ZM363.055 62.3466C365.264 62.3466 367.055 64.1374 367.055 66.3466V125.058C367.055 127.267 365.264 129.058 363.055 129.058H304.296C302.087 129.058 300.296 127.267 300.296 125.058V66.3466C300.296 64.1375 302.087 62.3466 304.296 62.3466H363.055ZM294.584 62.3466C296.793 62.3466 298.584 64.1374 298.584 66.3466V125.058C298.584 127.267 296.793 129.058 294.584 129.058H235.825C233.616 129.058 231.825 127.267 231.825 125.058V66.3466C231.825 64.1375 233.616 62.3466 235.825 62.3466H294.584ZM226.113 62.3466C228.322 62.3466 230.113 64.1374 230.113 66.3466V125.058C230.113 127.267 228.322 129.058 226.113 129.058H167.354C165.145 129.058 163.354 127.267 163.354 125.058V66.3466C163.354 64.1375 165.145 62.3466 167.354 62.3466H226.113ZM157.642 62.3466C159.851 62.3466 161.642 64.1374 161.642 66.3466V125.058C161.642 127.267 159.851 129.058 157.642 129.058H98.8826C96.6735 129.058 94.8826 127.267 94.8826 125.058V66.3466C94.8826 64.1374 96.6735 62.3466 98.8826 62.3466H157.642Z" fill="url(#paint0_radial_97_14)"/>
</g>
<defs>
<radialGradient id="paint0_radial_97_14" cx="0" cy="0" r="1" gradientUnits="userSpaceOnUse" gradientTransform="translate(343.09 214.586) rotate(90) scale(242.171 387.751)">
<stop stop-color="white"/>
<stop offset="1" stop-color="white" stop-opacity="0.5"/>
</radialGradient>
</defs>
</svg>
