<svg width="74" height="36" viewBox="0 0 74 36" fill="none" xmlns="http://www.w3.org/2000/svg">
<rect x="3.80548" y="0.774247" width="70.0806" height="24.6806" rx="12.3403" transform="rotate(8 3.80548 0.774247)" fill="#902013"/>
<rect x="3.80548" y="0.774247" width="70.0806" height="24.6806" rx="12.3403" transform="rotate(8 3.80548 0.774247)" fill="url(#paint0_linear_78_4767)" fill-opacity="0.38"/>
<rect x="3.80548" y="0.774247" width="70.0806" height="24.6806" rx="12.3403" transform="rotate(8 3.80548 0.774247)" stroke="url(#paint1_linear_78_4767)" stroke-width="0.519355"/>
<g clip-path="url(#clip0_78_4767)">
<path d="M14.8944 13.5332C14.8072 13.0597 14.5021 12.6548 14.071 12.4404C13.6321 12.2223 13.7237 11.5711 14.2056 11.4823C14.6792 11.3951 15.084 11.09 15.2984 10.6588C15.5166 10.22 16.1678 10.3115 16.2565 10.7935C16.3438 11.2671 16.6488 11.6719 17.08 11.8863C17.5188 12.1045 17.4273 12.7557 16.9454 12.8444C16.4718 12.9316 16.0669 13.2367 15.8526 13.6679C15.6344 14.1067 14.9832 14.0152 14.8944 13.5332Z" fill="white"/>
<path d="M17.8306 19.1349C17.678 18.3061 17.1441 17.5976 16.3895 17.2225C15.6216 16.8407 15.7817 15.7011 16.6252 15.5458C17.4539 15.3931 18.1624 14.8592 18.5375 14.1047C18.9193 13.3368 20.0589 13.4969 20.2143 14.3403C20.3669 15.1691 20.9008 15.8776 21.6553 16.2527C22.4233 16.6345 22.2631 17.7741 21.4197 17.9294C20.591 18.0821 19.8825 18.616 19.5073 19.3705C19.1255 20.1384 17.9859 19.9783 17.8306 19.1349Z" fill="white"/>
</g>
<path d="M24.8536 19.7283L25.7888 13.0737L26.7109 13.2033L30.0142 19.2224L29.8501 19.2866C29.847 19.1246 29.8488 18.9504 29.8557 18.7639C29.8634 18.5711 29.8724 18.3688 29.8828 18.157C29.9004 17.9397 29.9193 17.7129 29.9396 17.4767C29.9671 17.2349 29.996 16.9837 30.0262 16.723C30.0563 16.4622 30.091 16.1924 30.1302 15.9136L30.4375 13.7271L31.4642 13.8714L30.529 20.526L29.5878 20.3937L26.3231 14.5836L26.4463 14.4652C26.4237 14.8562 26.4027 15.1894 26.3834 15.4646C26.3714 15.7343 26.3583 15.9651 26.3443 16.1571C26.3375 16.3435 26.3288 16.4974 26.3182 16.6187C26.3085 16.7337 26.2983 16.8292 26.2876 16.9052C26.2833 16.9822 26.2771 17.0492 26.2691 17.1062L25.8803 19.8726L24.8536 19.7283ZM34.375 21.1634C33.887 21.0948 33.4653 20.9225 33.1098 20.6463C32.7616 20.3647 32.5038 20.015 32.3363 19.5973C32.1697 19.1731 32.1216 18.7108 32.192 18.2101C32.2623 17.7094 32.4356 17.2813 32.7117 16.9259C32.9888 16.5642 33.333 16.2991 33.7445 16.1307C34.1631 15.9569 34.6165 15.9043 35.1045 15.9728C35.5861 16.0405 36.0011 16.2152 36.3493 16.4968C36.7047 16.7729 36.9657 17.1231 37.1323 17.5472C37.2998 17.965 37.3484 18.4242 37.278 18.9249C37.2076 19.4255 37.0339 19.8568 36.7569 20.2185C36.4807 20.574 36.1333 20.8386 35.7146 21.0124C35.3032 21.1808 34.8567 21.2311 34.375 21.1634ZM34.5006 20.2698C34.7984 20.3117 35.0749 20.2762 35.3299 20.1634C35.5857 20.0442 35.798 19.8673 35.9667 19.6325C36.1364 19.3913 36.2407 19.1087 36.2798 18.7846C36.3325 18.4559 36.31 18.1555 36.2126 17.8833C36.116 17.6047 35.9607 17.3761 35.7467 17.1973C35.5327 17.0186 35.2768 16.9083 34.9789 16.8665C34.681 16.8246 34.401 16.8628 34.1388 16.9811C33.8838 17.0939 33.6715 17.2708 33.5019 17.512C33.3332 17.7468 33.2292 18.0262 33.1902 18.3504C33.1384 18.6727 33.1608 18.9731 33.2574 19.2517C33.3548 19.5239 33.5101 19.7525 33.7232 19.9376C33.9436 20.1172 34.2027 20.228 34.5006 20.2698ZM40.1002 21.9681C39.6375 21.903 39.2384 21.7306 38.9029 21.4508C38.5737 21.1719 38.329 20.8208 38.1687 20.3976C38.0148 19.9752 37.9722 19.5201 38.0407 19.0321C38.1093 18.5441 38.2758 18.1183 38.5402 17.7547C38.8109 17.3921 39.1429 17.1221 39.5362 16.9447C39.9359 16.7682 40.367 16.7124 40.8297 16.7775C41.2733 16.8398 41.6628 16.9883 41.9983 17.2228C42.3409 17.452 42.5855 17.7351 42.732 18.0724L42.0966 18.6617C42.0156 18.5017 41.9044 18.3503 41.7629 18.2077C41.6214 18.065 41.4668 17.9463 41.2991 17.8517C41.1315 17.757 40.9653 17.6981 40.8005 17.6749C40.4963 17.6322 40.2131 17.6699 39.9508 17.7882C39.6959 17.901 39.4804 18.0775 39.3044 18.3178C39.1285 18.558 39.0178 18.8398 38.9724 19.163C38.927 19.4862 38.9589 19.788 39.0681 20.0683C39.1783 20.3423 39.3431 20.5723 39.5625 20.7583C39.782 20.9442 40.0375 21.0577 40.329 21.0986C40.5001 21.1227 40.6689 21.1173 40.8354 21.0826C41.0082 21.0487 41.1786 20.9854 41.3468 20.8927C41.5149 20.8 41.6771 20.6806 41.8333 20.5345L42.2817 21.2761C42.0388 21.5328 41.7143 21.7263 41.3082 21.8567C40.9085 21.9879 40.5058 22.0251 40.1002 21.9681ZM45.3113 22.7004C44.8233 22.6318 44.4015 22.4595 44.0461 22.1833C43.6979 21.9017 43.4401 21.552 43.2726 21.1343C43.106 20.7101 43.0579 20.2477 43.1282 19.7471C43.1986 19.2464 43.3719 18.8183 43.648 18.4629C43.9251 18.1011 44.2693 17.8361 44.6807 17.6677C45.0994 17.4939 45.5527 17.4413 46.0407 17.5098C46.5224 17.5775 46.9373 17.7522 47.2855 18.0338C47.641 18.3099 47.902 18.6601 48.0686 19.0842C48.2361 19.502 48.2846 19.9612 48.2143 20.4619C48.1439 20.9625 47.9702 21.3938 47.6931 21.7555C47.417 22.1109 47.0696 22.3756 46.6509 22.5494C46.2395 22.7178 45.7929 22.7681 45.3113 22.7004ZM45.4368 21.8068C45.7347 21.8487 46.0111 21.8132 46.2661 21.7004C46.522 21.5812 46.7343 21.4043 46.903 21.1695C47.0726 20.9283 47.177 20.6457 47.2161 20.3216C47.2687 19.9929 47.2463 19.6925 47.1489 19.4202C47.0523 19.1417 46.897 18.9131 46.683 18.7343C46.469 18.5556 46.213 18.4453 45.9152 18.4035C45.6173 18.3616 45.3372 18.3998 45.075 18.518C44.8201 18.6309 44.6078 18.8078 44.4381 19.049C44.2694 19.2838 44.1655 19.5632 44.1264 19.8874C44.0747 20.2097 44.0971 20.5101 44.1936 20.7887C44.2911 21.0609 44.4464 21.2895 44.6595 21.4746C44.8799 21.6542 45.139 21.7649 45.4368 21.8068ZM50.9984 23.4997C50.5421 23.4356 50.1489 23.2672 49.8188 22.9946C49.496 22.7166 49.2572 22.3696 49.1023 21.9536C48.9484 21.5312 48.9066 21.0697 48.977 20.5691C49.0474 20.0684 49.2111 19.639 49.4683 19.2809C49.7326 18.9173 50.0579 18.6496 50.444 18.4777C50.8309 18.2994 51.2494 18.2419 51.6994 18.3051C51.9466 18.3398 52.1784 18.4144 52.395 18.5289C52.6188 18.6379 52.8128 18.775 52.977 18.9403C53.1421 19.0992 53.2638 19.2682 53.342 19.4472C53.4275 19.6208 53.4587 19.79 53.4355 19.9548L53.1476 19.9337L53.6166 16.5969L54.5958 16.7345L53.6071 23.7694L52.6279 23.6318L52.7949 22.4434L52.985 22.4702C52.9637 22.6223 52.8916 22.7673 52.7688 22.9051C52.6469 23.0366 52.4915 23.1537 52.3026 23.2564C52.12 23.36 51.9124 23.4343 51.6799 23.4791C51.4537 23.5249 51.2266 23.5318 50.9984 23.4997ZM51.2504 22.6723C51.5483 22.7142 51.822 22.6751 52.0715 22.5551C52.3211 22.435 52.5275 22.254 52.6907 22.0119C52.8612 21.7645 52.9701 21.4728 53.0173 21.1369C53.0645 20.801 53.0398 20.4938 52.9433 20.2152C52.8539 19.9312 52.7059 19.6971 52.4991 19.513C52.2923 19.3288 52.04 19.2158 51.7421 19.1739C51.4442 19.132 51.1705 19.1711 50.921 19.2912C50.6714 19.4112 50.4614 19.595 50.2909 19.8424C50.1277 20.0845 50.0224 20.3734 49.9752 20.7093C49.928 21.0452 49.9491 21.3552 50.0384 21.6392C50.135 21.9177 50.2867 22.1491 50.4934 22.3333C50.7002 22.5174 50.9525 22.6305 51.2504 22.6723ZM57.2708 24.3812C56.7574 24.3091 56.3162 24.1372 55.9472 23.8656C55.5855 23.5886 55.3172 23.2439 55.1425 22.8315C54.9741 22.4201 54.9247 21.9672 54.9942 21.4729C55.0494 21.0799 55.1631 20.7308 55.3353 20.4254C55.5074 20.1199 55.7209 19.8656 55.9757 19.6623C56.2377 19.4535 56.5329 19.3076 56.8613 19.2244C57.1968 19.1359 57.5484 19.1174 57.916 19.1691C58.2392 19.2145 58.5314 19.3202 58.7924 19.4862C59.0544 19.6458 59.2716 19.8476 59.4441 20.0915C59.623 20.3364 59.7453 20.6154 59.8112 20.9284C59.8843 21.236 59.8932 21.5636 59.8379 21.9113L59.7696 22.3282L55.6913 21.755L55.5822 20.9448L59.0331 21.4298L58.8678 21.5713L58.8998 21.3432C58.9102 21.1314 58.8668 20.9346 58.7695 20.7529C58.6722 20.5712 58.5384 20.4199 58.368 20.299C58.1975 20.1781 58.0046 20.1025 57.7891 20.0722C57.4469 20.0241 57.1491 20.0501 56.8959 20.1503C56.6436 20.2441 56.4394 20.4093 56.2834 20.6459C56.1283 20.8761 56.0248 21.175 55.9732 21.5426C55.9242 21.8912 55.9543 22.2056 56.0636 22.486C56.1737 22.76 56.3521 22.9854 56.5987 23.1622C56.8453 23.3391 57.1428 23.452 57.4914 23.501C57.7386 23.5357 57.9725 23.5266 58.1932 23.4736C58.4203 23.4215 58.6726 23.305 58.95 23.1243L59.3468 23.8878C59.1734 24.0185 58.9677 24.1253 58.7298 24.2082C58.4983 24.292 58.2541 24.3514 57.9971 24.3864C57.7474 24.4159 57.5052 24.4142 57.2708 24.3812Z" fill="white"/>
<defs>
<linearGradient id="paint0_linear_78_4767" x1="32.7367" y1="-5.52198" x2="44.9082" y2="26.6366" gradientUnits="userSpaceOnUse">
<stop stop-color="white"/>
<stop offset="1" stop-color="white" stop-opacity="0"/>
</linearGradient>
<linearGradient id="paint1_linear_78_4767" x1="29.1697" y1="-10.5594" x2="35.5306" y2="9.49693" gradientUnits="userSpaceOnUse">
<stop stop-color="white"/>
<stop offset="1" stop-color="white" stop-opacity="0"/>
</linearGradient>
<clipPath id="clip0_78_4767">
<rect width="10.8" height="10.8" fill="white" transform="translate(13.2775 9.11401) rotate(8)"/>
</clipPath>
</defs>
</svg>
