<svg width="76" height="51" viewBox="0 0 76 51" fill="none" xmlns="http://www.w3.org/2000/svg">
<rect x="0.830233" y="27.5558" width="70.0806" height="24.6806" rx="12.3403" transform="rotate(-22 0.830233 27.5558)" fill="#E9910E"/>
<rect x="0.830233" y="27.5558" width="70.0806" height="24.6806" rx="12.3403" transform="rotate(-22 0.830233 27.5558)" fill="url(#paint0_linear_78_4756)" fill-opacity="0.38"/>
<rect x="0.830233" y="27.5558" width="70.0806" height="24.6806" rx="12.3403" transform="rotate(-22 0.830233 27.5558)" stroke="url(#paint1_linear_78_4756)" stroke-width="0.519355"/>
<g clip-path="url(#clip0_78_4756)">
<path d="M20.5454 29.6657C20.5353 29.4174 20.3257 29.2243 20.0774 29.2345C19.8291 29.2446 19.636 29.4542 19.6462 29.7025L19.9201 36.3866C19.9302 36.635 20.1398 36.828 20.3881 36.8178C20.6364 36.8077 20.8295 36.5981 20.8193 36.3498L20.5454 29.6657Z" fill="white"/>
<path d="M18.1432 31.6598C18.3485 31.7999 18.4013 32.0799 18.2612 32.2852L16.8126 34.408L19.3293 34.9287C19.5727 34.9791 19.7291 35.2172 19.6788 35.4606C19.6284 35.7039 19.3903 35.8604 19.1469 35.81L15.9692 35.1525C15.8219 35.1221 15.6996 35.02 15.6432 34.8805C15.5868 34.741 15.6039 34.5825 15.6887 34.4582L17.5178 31.7779C17.6579 31.5726 17.9379 31.5197 18.1432 31.6598Z" fill="white"/>
<path d="M20.7867 30.5918C20.7364 30.8351 20.8928 31.0732 21.1362 31.1236L23.6529 31.6443L22.2043 33.7671C22.0642 33.9724 22.117 34.2524 22.3223 34.3925C22.5276 34.5326 22.8076 34.4797 22.9477 34.2744L24.7768 31.5941C24.8616 31.4698 24.8787 31.3114 24.8223 31.1719C24.766 31.0323 24.6436 30.9302 24.4963 30.8998L21.3186 30.2423C21.0752 30.1919 20.8371 30.3484 20.7867 30.5918Z" fill="white"/>
</g>
<path d="M28.5354 33.4465L26.0181 27.2158L28.5549 26.1909C28.8931 26.0542 29.2335 26.0168 29.576 26.0786C29.922 26.132 30.2368 26.2706 30.5204 26.4942C30.8041 26.7179 31.0178 27.0077 31.1616 27.3637C31.3055 27.7198 31.3531 28.0767 31.3044 28.4346C31.2557 28.7925 31.1279 29.1168 30.9209 29.4075C30.7175 29.6899 30.4467 29.8994 30.1084 30.0361L28.533 30.6726L29.4967 33.0581L28.5354 33.4465ZM28.159 29.7469L29.7166 29.1176C29.8768 29.0528 30.0042 28.9496 30.0988 28.8078C30.191 28.6601 30.2457 28.4965 30.2629 28.317C30.2837 28.1292 30.2569 27.9433 30.1825 27.7593C30.1082 27.5754 29.9996 27.426 29.8565 27.3112C29.7195 27.194 29.5677 27.1173 29.4012 27.081C29.2346 27.0448 29.0713 27.059 28.9111 27.1237L27.3534 27.7531L28.159 29.7469ZM33.9454 31.2607L32.0573 26.5877L32.983 26.2137L33.5764 27.6824L33.3436 27.3623C33.3177 27.1104 33.3448 26.8613 33.4247 26.615C33.5106 26.3664 33.6329 26.1479 33.7915 25.9595C33.956 25.7688 34.1481 25.6291 34.3676 25.5404C34.4685 25.4996 34.567 25.4702 34.6632 25.452C34.7654 25.4315 34.848 25.4223 34.9109 25.4244L35.0734 26.5184C34.9902 26.5175 34.9005 26.5261 34.8043 26.5443C34.7116 26.5541 34.6238 26.5758 34.5407 26.6094C34.3805 26.6741 34.2394 26.7691 34.1174 26.8943C33.999 27.0112 33.9061 27.1488 33.8389 27.3071C33.7753 27.457 33.7408 27.6194 33.7355 27.7941C33.7277 27.9629 33.7586 28.1333 33.8281 28.3054L34.8711 30.8867L33.9454 31.2607ZM39.472 29.1314C39.015 29.316 38.5636 29.3775 38.1178 29.3161C37.6754 29.2463 37.2773 29.0724 36.9233 28.7943C36.567 28.5103 36.2941 28.134 36.1047 27.6652C35.9153 27.1964 35.8513 26.7391 35.9128 26.2932C35.9718 25.8414 36.1374 25.4397 36.4095 25.0881C36.6852 24.7283 37.0515 24.456 37.5084 24.2714C37.9594 24.0892 38.4061 24.033 38.8484 24.1028C39.2943 24.1642 39.6954 24.3369 40.0517 24.6209C40.4057 24.899 40.6773 25.2724 40.8667 25.7412C41.0561 26.21 41.1213 26.6703 41.0623 27.1221C41.0008 27.568 40.8323 27.9709 40.5566 28.3307C40.2845 28.6823 39.9229 28.9491 39.472 29.1314ZM39.1339 28.2947C39.4128 28.182 39.6345 28.013 39.7989 27.7879C39.9609 27.5567 40.0563 27.2973 40.085 27.0096C40.1113 26.716 40.0603 26.419 39.9321 26.1188C39.8134 25.8078 39.6438 25.5588 39.4233 25.3718C39.2004 25.1789 38.9516 25.0585 38.6769 25.0108C38.4022 24.963 38.1254 24.9954 37.8465 25.1081C37.5676 25.2208 37.3441 25.3939 37.1762 25.6274C37.0118 25.8526 36.9164 26.112 36.8901 26.4057C36.8614 26.6934 36.9111 26.9873 37.0393 27.2876C37.1557 27.5926 37.3253 27.8416 37.5482 28.0345C37.7687 28.2215 38.0175 28.3419 38.2946 28.3956C38.5752 28.441 38.855 28.4073 39.1339 28.2947ZM44.7968 26.98C44.3696 27.1526 43.9449 27.2034 43.5227 27.1323C43.1041 27.053 42.7238 26.8719 42.3817 26.589C42.0372 26.3002 41.7703 25.9214 41.5809 25.4527C41.3915 24.9839 41.3186 24.5301 41.3623 24.0914C41.4094 23.6444 41.5572 23.2499 41.8056 22.908C42.0516 22.5601 42.3853 22.301 42.8066 22.1308C43.038 22.0373 43.2761 21.986 43.5209 21.9768C43.7692 21.9593 44.0058 21.9811 44.2306 22.0421C44.4531 22.0972 44.6429 22.1827 44.8002 22.2986C44.961 22.4062 45.0726 22.5372 45.1349 22.6914L44.8751 22.8171L43.6128 19.6929L44.5296 19.3225L47.1908 25.9092L46.274 26.2796L45.8245 25.167L46.0025 25.0951C46.0601 25.2375 46.0701 25.3991 46.0327 25.5798C45.9929 25.7547 45.9169 25.9338 45.8046 26.1172C45.6983 26.2982 45.5557 26.4663 45.3767 26.6214C45.2037 26.7741 45.0104 26.8937 44.7968 26.98ZM44.6014 26.1374C44.8803 26.0248 45.0978 25.854 45.2538 25.6253C45.4099 25.3966 45.4982 25.1366 45.5185 24.8454C45.5425 24.5458 45.4909 24.2388 45.3638 23.9243C45.2368 23.6098 45.0618 23.356 44.8389 23.1631C44.6195 22.9618 44.3742 22.8331 44.103 22.777C43.8319 22.7209 43.5569 22.7492 43.278 22.8619C42.9991 22.9746 42.7816 23.1453 42.6255 23.374C42.4694 23.6027 42.3794 23.8669 42.3555 24.1664C42.3351 24.4577 42.3884 24.7606 42.5155 25.0751C42.6426 25.3896 42.8158 25.6474 43.0352 25.8487C43.2581 26.0417 43.5051 26.1662 43.7763 26.2223C44.0474 26.2784 44.3225 26.2501 44.6014 26.1374ZM50.2657 24.7704C49.9334 24.9047 49.6115 24.945 49.2999 24.8914C48.9943 24.8354 48.7169 24.6955 48.4677 24.4718C48.2245 24.2456 48.025 23.9397 47.8691 23.554L46.7039 20.6701L47.6207 20.2997L48.6852 22.9344C48.7955 23.2073 48.9329 23.4279 49.0975 23.5961C49.2657 23.7559 49.4514 23.8569 49.6548 23.899C49.8641 23.9387 50.0845 23.9118 50.3159 23.8183C50.488 23.7487 50.6344 23.6585 50.7553 23.5476C50.8737 23.4307 50.963 23.3014 51.0231 23.1598C51.0892 23.0158 51.1231 22.8605 51.1249 22.6942C51.1267 22.5278 51.094 22.3615 51.0269 22.1953L49.8905 19.3826L50.8073 19.0122L52.6953 23.6852L51.7785 24.0556L51.3829 23.0765L51.5 22.905C51.5175 23.1533 51.4761 23.4013 51.376 23.6488C51.2818 23.894 51.1405 24.1167 50.9522 24.317C50.7616 24.5114 50.5327 24.6625 50.2657 24.7704ZM56.0021 22.4527C55.5689 22.6278 55.1371 22.678 54.7066 22.6034C54.2821 22.5264 53.8946 22.3448 53.5442 22.0584C53.1997 21.7696 52.9352 21.3967 52.7506 20.9398C52.566 20.4829 52.4973 20.0309 52.5444 19.5839C52.5975 19.1345 52.7501 18.7346 53.002 18.3844C53.2599 18.0317 53.6054 17.7678 54.0386 17.5928C54.4539 17.425 54.8655 17.3588 55.2733 17.3942C55.6846 17.4213 56.038 17.5443 56.3335 17.7631L56.0778 18.5912C55.9278 18.4931 55.7558 18.4176 55.5619 18.3648C55.368 18.312 55.1747 18.2865 54.9822 18.2884C54.7897 18.2902 54.6163 18.3223 54.462 18.3846C54.1772 18.4997 53.9508 18.674 53.7828 18.9075C53.6184 19.1327 53.5201 19.3933 53.4878 19.6894C53.4556 19.9854 53.5006 20.2848 53.6229 20.5874C53.7451 20.89 53.9237 21.1354 54.1584 21.3236C54.3908 21.5058 54.6485 21.6225 54.9316 21.6739C55.2146 21.7252 55.4926 21.6957 55.7656 21.5854C55.9258 21.5207 56.0693 21.4316 56.196 21.3183C56.3287 21.2025 56.4447 21.0625 56.544 20.8981C56.6432 20.7338 56.724 20.5493 56.7863 20.3447L57.5454 20.7628C57.4634 21.1065 57.2791 21.4363 56.9926 21.7523C56.712 22.0658 56.3819 22.2993 56.0021 22.4527ZM59.3232 21.0074L56.9533 15.1417L57.8701 14.7712L60.24 20.637L59.3232 21.0074ZM56.8246 17.6165L56.465 16.7264L59.4379 15.5252L59.7975 16.4153L56.8246 17.6165Z" fill="white"/>
<defs>
<linearGradient id="paint0_linear_78_4756" x1="29.6444" y1="21.4094" x2="41.8159" y2="53.568" gradientUnits="userSpaceOnUse">
<stop stop-color="white"/>
<stop offset="1" stop-color="white" stop-opacity="0"/>
</linearGradient>
<linearGradient id="paint1_linear_78_4756" x1="26.0774" y1="16.372" x2="32.4383" y2="36.4283" gradientUnits="userSpaceOnUse">
<stop stop-color="white"/>
<stop offset="1" stop-color="white" stop-opacity="0"/>
</linearGradient>
<clipPath id="clip0_78_4756">
<rect width="10.8" height="10.8" fill="white" transform="translate(13.2031 30.0422) rotate(-22)"/>
</clipPath>
</defs>
</svg>
